<svg data-v-423bf9ae="" xmlns="http://www.w3.org/2000/svg" viewBox="0 0 400 90" class="iconLeft"><!----><!----><!----><g data-v-423bf9ae="" id="3a8ffcc0-7b83-4d94-a765-e934dd182676" fill="white" transform="matrix(4.743083146983607,0,0,4.743083146983607,96.36308096624128,-4.399211748574324)"><path d="M4.34 14.11L4.34 14.11Q3.37 14.11 2.64 13.71L2.64 13.71L2.64 13.71Q1.90 13.31 1.51 12.59L1.51 12.59L1.51 12.59Q1.11 11.87 1.11 10.93L1.11 10.93L1.11 7.27L1.11 7.27Q1.11 6.33 1.51 5.61L1.51 5.61L1.51 5.61Q1.90 4.89 2.64 4.49L2.64 4.49L2.64 4.49Q3.37 4.09 4.34 4.09L4.34 4.09L4.34 4.09Q5.31 4.09 6.05 4.49L6.05 4.49L6.05 4.49Q6.79 4.89 7.20 5.61L7.20 5.61L7.20 5.61Q7.60 6.33 7.60 7.27L7.60 7.27L7.60 10.93L7.60 10.93Q7.60 11.87 7.20 12.59L7.20 12.59L7.20 12.59Q6.79 13.31 6.05 13.71L6.05 13.71L6.05 13.71Q5.31 14.11 4.34 14.11L4.34 14.11ZM4.34 13.47L4.34 13.47Q5.47 13.47 6.17 12.78L6.17 12.78L6.17 12.78Q6.86 12.10 6.86 10.96L6.86 10.96L6.86 7.25L6.86 7.25Q6.86 6.13 6.17 5.44L6.17 5.44L6.17 5.44Q5.47 4.75 4.34 4.75L4.34 4.75L4.34 4.75Q3.22 4.75 2.53 5.44L2.53 5.44L2.53 5.44Q1.85 6.13 1.85 7.25L1.85 7.25L1.85 10.96L1.85 10.96Q1.85 12.10 2.53 12.78L2.53 12.78L2.53 12.78Q3.22 13.47 4.34 13.47L4.34 13.47ZM15.23 8.69L15.23 8.69Q15.39 9.28 15.39 10.46L15.39 10.46L15.39 10.46Q15.39 11.09 15.36 11.49L15.36 11.49L15.36 11.49Q15.33 11.90 15.25 12.22L15.25 12.22L15.25 12.22Q15.02 13.09 14.36 13.60L14.36 13.60L14.36 13.60Q13.69 14.11 12.73 14.11L12.73 14.11L12.73 14.11Q12.11 14.11 11.63 13.87L11.63 13.87L11.63 13.87Q11.14 13.62 10.84 13.16L10.84 13.16L10.84 13.16Q10.82 13.13 10.79 13.15L10.79 13.15L10.79 13.15Q10.77 13.16 10.77 13.19L10.77 13.19L10.77 16.58L10.77 16.58Q10.77 16.65 10.72 16.70L10.72 16.70L10.72 16.70Q10.67 16.74 10.60 16.74L10.60 16.74L10.19 16.74L10.19 16.74Q10.12 16.74 10.07 16.70L10.07 16.70L10.07 16.70Q10.02 16.65 10.02 16.58L10.02 16.58L10.02 7.11L10.02 7.11Q10.02 7.04 10.07 6.99L10.07 6.99L10.07 6.99Q10.12 6.94 10.19 6.94L10.19 6.94L10.60 6.94L10.60 6.94Q10.67 6.94 10.72 6.99L10.72 6.99L10.72 6.99Q10.77 7.04 10.77 7.11L10.77 7.11L10.77 7.77L10.77 7.77Q10.77 7.81 10.79 7.82L10.79 7.82L10.79 7.82Q10.81 7.83 10.84 7.80L10.84 7.80L10.84 7.80Q11.14 7.34 11.63 7.08L11.63 7.08L11.63 7.08Q12.11 6.83 12.73 6.83L12.73 6.83L12.73 6.83Q13.68 6.83 14.34 7.34L14.34 7.34L14.34 7.34Q14.99 7.84 15.23 8.69L15.23 8.69ZM14.42 12.18L14.42 12.18Q14.55 11.89 14.60 11.55L14.60 11.55L14.60 11.55Q14.64 11.21 14.64 10.47L14.64 10.47L14.64 10.47Q14.64 9.77 14.60 9.44L14.60 9.44L14.60 9.44Q14.56 9.11 14.46 8.81L14.46 8.81L14.46 8.81Q14.31 8.22 13.82 7.85L13.82 7.85L13.82 7.85Q13.33 7.49 12.64 7.49L12.64 7.49L12.64 7.49Q11.98 7.49 11.54 7.85L11.54 7.85L11.54 7.85Q11.10 8.22 10.95 8.81L10.95 8.81L10.95 8.81Q10.85 9.07 10.82 9.40L10.82 9.40L10.82 9.40Q10.78 9.73 10.78 10.46L10.78 10.46L10.78 10.46Q10.78 11.20 10.82 11.54L10.82 11.54L10.82 11.54Q10.86 11.89 10.96 12.17L10.96 12.17L10.96 12.17Q11.10 12.74 11.55 13.10L11.55 13.10L11.55 13.10Q12.00 13.45 12.64 13.45L12.64 13.45L12.64 13.45Q13.30 13.45 13.78 13.10L13.78 13.10L13.78 13.10Q14.25 12.74 14.42 12.18L14.42 12.18ZM20.15 13.47L20.15 13.47Q20.83 13.45 21.32 13.15L21.32 13.15L21.32 13.15Q21.81 12.85 22.05 12.32L22.05 12.32L22.05 12.32Q22.13 12.18 22.27 12.24L22.27 12.24L22.53 12.33L22.53 12.33Q22.69 12.40 22.62 12.56L22.62 12.56L22.62 12.56Q22.32 13.27 21.66 13.69L21.66 13.69L21.66 13.69Q21 14.11 20.09 14.11L20.09 14.11L20.09 14.11Q19.12 14.11 18.46 13.64L18.46 13.64L18.46 13.64Q17.79 13.16 17.53 12.33L17.53 12.33L17.53 12.33Q17.33 11.69 17.33 10.46L17.33 10.46L17.33 10.46Q17.33 9.77 17.35 9.42L17.35 9.42L17.35 9.42Q17.37 9.07 17.44 8.78L17.44 8.78L17.44 8.78Q17.67 7.90 18.36 7.36L18.36 7.36L18.36 7.36Q19.05 6.83 20.06 6.83L20.06 6.83L20.06 6.83Q21.18 6.83 21.87 7.42L21.87 7.42L21.87 7.42Q22.55 8.01 22.74 9.03L22.74 9.03L22.74 9.03Q22.79 9.31 22.81 9.61L22.81 9.61L22.81 9.61Q22.83 9.91 22.83 10.53L22.83 10.53L22.83 10.53Q22.83 10.71 22.67 10.71L22.67 10.71L18.12 10.71L18.12 10.71Q18.06 10.71 18.06 10.77L18.06 10.77L18.06 10.77Q18.06 11.65 18.13 11.97L18.13 11.97L18.13 11.97Q18.28 12.64 18.82 13.05L18.82 13.05L18.82 13.05Q19.35 13.47 20.15 13.47L20.15 13.47ZM18.16 8.95L18.16 8.95Q18.09 9.21 18.06 10.05L18.06 10.05L18.06 10.05Q18.06 10.11 18.12 10.11L18.12 10.11L22.02 10.11L22.02 10.11Q22.08 10.11 22.08 10.05L22.08 10.05L22.08 10.05Q22.08 9.34 22.01 8.99L22.01 8.99L22.01 8.99Q21.85 8.32 21.34 7.90L21.34 7.90L21.34 7.90Q20.82 7.49 20.06 7.49L20.06 7.49L20.06 7.49Q19.31 7.49 18.80 7.89L18.80 7.89L18.80 7.89Q18.30 8.29 18.16 8.95L18.16 8.95ZM27.78 6.85L27.78 6.85Q28.85 6.85 29.51 7.50L29.51 7.50L29.51 7.50Q30.17 8.16 30.17 9.24L30.17 9.24L30.17 13.83L30.17 13.83Q30.17 13.90 30.12 13.95L30.12 13.95L30.12 13.95Q30.07 14 30.00 14L30.00 14L29.60 14L29.60 14Q29.53 14 29.48 13.95L29.48 13.95L29.48 13.95Q29.43 13.90 29.43 13.83L29.43 13.83L29.43 9.38L29.43 9.38Q29.43 8.55 28.92 8.03L28.92 8.03L28.92 8.03Q28.42 7.50 27.62 7.50L27.62 7.50L27.62 7.50Q26.77 7.50 26.25 8.02L26.25 8.02L26.25 8.02Q25.73 8.53 25.73 9.35L25.73 9.35L25.73 13.83L25.73 13.83Q25.73 13.90 25.68 13.95L25.68 13.95L25.68 13.95Q25.63 14 25.56 14L25.56 14L25.16 14L25.16 14Q25.09 14 25.04 13.95L25.04 13.95L25.04 13.95Q24.99 13.90 24.99 13.83L24.99 13.83L24.99 7.11L24.99 7.11Q24.99 7.04 25.04 6.99L25.04 6.99L25.04 6.99Q25.09 6.94 25.16 6.94L25.16 6.94L25.56 6.94L25.56 6.94Q25.63 6.94 25.68 6.99L25.68 6.99L25.68 6.99Q25.73 7.04 25.73 7.11L25.73 7.11L25.73 7.77L25.73 7.77Q25.73 7.81 25.75 7.82L25.75 7.82L25.75 7.82Q25.77 7.83 25.79 7.80L25.79 7.80L25.79 7.80Q26.10 7.34 26.61 7.09L26.61 7.09L26.61 7.09Q27.12 6.85 27.78 6.85L27.78 6.85ZM32.89 14L32.89 14Q32.82 14 32.77 13.95L32.77 13.95L32.77 13.95Q32.72 13.90 32.72 13.83L32.72 13.83L32.72 4.37L32.72 4.37Q32.72 4.30 32.77 4.25L32.77 4.25L32.77 4.25Q32.82 4.20 32.89 4.20L32.89 4.20L33.31 4.20L33.31 4.20Q33.45 4.20 33.50 4.31L33.50 4.31L38.53 12.46L38.53 12.46Q38.54 12.50 38.57 12.49L38.57 12.49L38.57 12.49Q38.60 12.49 38.60 12.45L38.60 12.45L38.60 4.37L38.60 4.37Q38.60 4.30 38.65 4.25L38.65 4.25L38.65 4.25Q38.70 4.20 38.77 4.20L38.77 4.20L39.17 4.20L39.17 4.20Q39.24 4.20 39.29 4.25L39.29 4.25L39.29 4.25Q39.34 4.30 39.34 4.37L39.34 4.37L39.34 13.83L39.34 13.83Q39.34 13.90 39.29 13.95L39.29 13.95L39.29 13.95Q39.24 14 39.17 14L39.17 14L38.75 14L38.75 14Q38.61 14 38.56 13.89L38.56 13.89L33.53 5.73L33.53 5.73Q33.52 5.68 33.49 5.69L33.49 5.69L33.49 5.69Q33.46 5.70 33.46 5.74L33.46 5.74L33.46 13.83L33.46 13.83Q33.46 13.90 33.41 13.95L33.41 13.95L33.41 13.95Q33.36 14 33.29 14L33.29 14L32.89 14ZM44.58 13.47L44.58 13.47Q45.26 13.45 45.75 13.15L45.75 13.15L45.75 13.15Q46.24 12.85 46.48 12.32L46.48 12.32L46.48 12.32Q46.56 12.18 46.70 12.24L46.70 12.24L46.96 12.33L46.96 12.33Q47.12 12.40 47.05 12.56L47.05 12.56L47.05 12.56Q46.75 13.27 46.09 13.69L46.09 13.69L46.09 13.69Q45.43 14.11 44.52 14.11L44.52 14.11L44.52 14.11Q43.55 14.11 42.89 13.64L42.89 13.64L42.89 13.64Q42.22 13.16 41.96 12.33L41.96 12.33L41.96 12.33Q41.76 11.69 41.76 10.46L41.76 10.46L41.76 10.46Q41.76 9.77 41.78 9.42L41.78 9.42L41.78 9.42Q41.80 9.07 41.87 8.78L41.87 8.78L41.87 8.78Q42.10 7.90 42.79 7.36L42.79 7.36L42.79 7.36Q43.48 6.83 44.49 6.83L44.49 6.83L44.49 6.83Q45.61 6.83 46.30 7.42L46.30 7.42L46.30 7.42Q46.98 8.01 47.17 9.03L47.17 9.03L47.17 9.03Q47.22 9.31 47.24 9.61L47.24 9.61L47.24 9.61Q47.26 9.91 47.26 10.53L47.26 10.53L47.26 10.53Q47.26 10.71 47.10 10.71L47.10 10.71L42.55 10.71L42.55 10.71Q42.49 10.71 42.49 10.77L42.49 10.77L42.49 10.77Q42.49 11.65 42.56 11.97L42.56 11.97L42.56 11.97Q42.71 12.64 43.25 13.05L43.25 13.05L43.25 13.05Q43.78 13.47 44.58 13.47L44.58 13.47ZM42.59 8.95L42.59 8.95Q42.52 9.21 42.49 10.05L42.49 10.05L42.49 10.05Q42.49 10.11 42.55 10.11L42.55 10.11L46.45 10.11L46.45 10.11Q46.51 10.11 46.51 10.05L46.51 10.05L46.51 10.05Q46.51 9.34 46.44 8.99L46.44 8.99L46.44 8.99Q46.28 8.32 45.77 7.90L45.77 7.90L45.77 7.90Q45.25 7.49 44.49 7.49L44.49 7.49L44.49 7.49Q43.74 7.49 43.23 7.89L43.23 7.89L43.23 7.89Q42.73 8.29 42.59 8.95L42.59 8.95ZM50.85 14L50.85 14Q50.69 14 50.65 13.86L50.65 13.86L48.71 7.14L48.69 7.08L48.69 7.08Q48.69 6.94 48.85 6.94L48.85 6.94L49.25 6.94L49.25 6.94Q49.41 6.94 49.45 7.08L49.45 7.08L51.04 12.91L51.04 12.91Q51.06 12.94 51.08 12.94L51.08 12.94L51.08 12.94Q51.10 12.94 51.11 12.91L51.11 12.91L52.72 7.08L52.72 7.08Q52.77 6.94 52.92 6.94L52.92 6.94L53.31 6.94L53.31 6.94Q53.47 6.94 53.51 7.08L53.51 7.08L55.13 12.89L55.13 12.89Q55.15 12.92 55.17 12.92L55.17 12.92L55.17 12.92Q55.20 12.92 55.22 12.89L55.22 12.89L56.83 7.08L56.83 7.08Q56.87 6.94 57.02 6.94L57.02 6.94L57.43 6.96L57.43 6.96Q57.51 6.96 57.55 7.01L57.55 7.01L57.55 7.01Q57.58 7.06 57.57 7.14L57.57 7.14L55.59 13.86L55.59 13.86Q55.55 14 55.41 14L55.41 14L54.98 14L54.98 14Q54.82 14 54.78 13.86L54.78 13.86L53.16 8.29L53.16 8.29Q53.14 8.26 53.12 8.26L53.12 8.26L53.12 8.26Q53.09 8.26 53.07 8.29L53.07 8.29L51.48 13.86L51.48 13.86Q51.44 14 51.28 14L51.28 14L50.85 14ZM61.49 14.07L61.49 14.07Q60.73 14.07 60.15 13.82L60.15 13.82L60.15 13.82Q59.57 13.58 59.25 13.16L59.25 13.16L59.25 13.16Q58.93 12.74 58.93 12.24L58.93 12.24L58.93 12.08L58.93 12.08Q58.93 12.01 58.98 11.96L58.98 11.96L58.98 11.96Q59.02 11.91 59.09 11.91L59.09 11.91L59.49 11.91L59.49 11.91Q59.56 11.91 59.61 11.96L59.61 11.96L59.61 11.96Q59.65 12.00 59.65 12.05L59.65 12.05L59.65 12.21L59.65 12.21Q59.65 12.71 60.17 13.09L60.17 13.09L60.17 13.09Q60.68 13.47 61.47 13.47L61.47 13.47L61.47 13.47Q62.26 13.47 62.76 13.09L62.76 13.09L62.76 13.09Q63.25 12.71 63.25 12.15L63.25 12.15L63.25 12.15Q63.25 11.76 63 11.51L63 11.51L63 11.51Q62.75 11.26 62.40 11.12L62.40 11.12L62.40 11.12Q62.05 10.99 61.36 10.78L61.36 10.78L61.36 10.78Q60.58 10.54 60.10 10.33L60.10 10.33L60.10 10.33Q59.63 10.12 59.30 9.74L59.30 9.74L59.30 9.74Q58.97 9.35 58.97 8.76L58.97 8.76L58.97 8.76Q58.97 7.91 59.65 7.40L59.65 7.40L59.65 7.40Q60.33 6.89 61.43 6.89L61.43 6.89L61.43 6.89Q62.17 6.89 62.74 7.13L62.74 7.13L62.74 7.13Q63.31 7.38 63.62 7.80L63.62 7.80L63.62 7.80Q63.94 8.22 63.94 8.75L63.94 8.75L63.94 8.76L63.94 8.76Q63.94 8.83 63.89 8.88L63.89 8.88L63.89 8.88Q63.84 8.93 63.77 8.93L63.77 8.93L63.39 8.93L63.39 8.93Q63.32 8.93 63.27 8.90L63.27 8.90L63.27 8.90Q63.22 8.88 63.22 8.83L63.22 8.83L63.22 8.75L63.22 8.75Q63.22 8.22 62.73 7.86L62.73 7.86L62.73 7.86Q62.23 7.50 61.42 7.50L61.42 7.50L61.42 7.50Q60.63 7.50 60.16 7.83L60.16 7.83L60.16 7.83Q59.68 8.16 59.68 8.72L59.68 8.72L59.68 8.72Q59.68 9.25 60.12 9.52L60.12 9.52L60.12 9.52Q60.56 9.79 61.50 10.07L61.50 10.07L61.50 10.07Q62.33 10.30 62.81 10.51L62.81 10.51L62.81 10.51Q63.29 10.71 63.64 11.10L63.64 11.10L63.64 11.10Q63.99 11.49 63.99 12.11L63.99 12.11L63.99 12.11Q63.99 12.99 63.31 13.53L63.31 13.53L63.31 13.53Q62.62 14.07 61.49 14.07L61.49 14.07Z"></path></g><!----><g data-v-423bf9ae="" id="081cae1e-9121-4da5-ad70-e55e3e169f44" transform="matrix(1.0465116279069768,0,0,1.0465116279069768,-11.325581395348841,-7.325581395348841)" stroke="none" fill="white"><path style="text-indent:0;text-align:start;line-height:normal;text-transform:none;block-progression:tb;marker:none;-inkscape-font-specification:Sans" d="M25 8v27H12c-.664 0-1 .58-1 1v49c0 4.415 3.585 8 8 8h62c4.415 0 8-3.585 8-8V8c0-.524-.476-1-1-1H26c-.664 0-1 .58-1 1zm2 1h60v76c0 3.341-2.659 6-6 6H24.281A7.985 7.985 0 0 0 27 85zm9 8c-.738 0-1 .529-1 1s.474 1 1 1h42c.528.007 1-.472 1-1s-.472-1.007-1-1zm0 10c-.763 0-1 .529-1 1s.474 1 1 1h16c.528.007 1-.472 1-1s-.472-1.007-1-1zm25.813 0c-.524.05-.956.57-.907 1.094.05.523.57.955 1.094.906h16c.528.007 1-.472 1-1s-.472-1.007-1-1H62a.995.995 0 0 0-.188 0zM13 37h12v48c0 3.341-2.659 6-6 6s-6-2.659-6-6zm23 4c-.763 0-1 .529-1 1s.474 1 1 1h42c.528.007 1-.472 1-1s-.472-1.007-1-1zm0 10c-.763 0-1 .529-1 1s.474 1 1 1h42c.528.007 1-.472 1-1s-.472-1.007-1-1zm0 10c-.763 0-1 .529-1 1s.474 1 1 1h42c.528.007 1-.472 1-1s-.472-1.007-1-1zm0 10c-.738 0-1 .529-1 1s.474 1 1 1h16c.528.007 1-.472 1-1s-.472-1.007-1-1zm25.813 0c-.524.05-.956.57-.907 1.094.05.523.57.955 1.094.906h16c.528.007 1-.472 1-1s-.472-1.007-1-1H62a.995.995 0 0 0-.188 0zM36 81c-.763 0-1 .529-1 1s.474 1 1 1h16c.528.007 1-.472 1-1s-.472-1.007-1-1zm25.813 0c-.524.05-.956.57-.907 1.094.05.523.57.955 1.094.906h16c.528.007 1-.472 1-1s-.472-1.007-1-1H62a.995.995 0 0 0-.188 0z" font-weight="400" color="#000" overflow="visible" font-family="Sans"></path></g><!----></svg>